# Blender 3.6.0
# www.blender.org
mtllib enemy.mtl
o 立方体
v -1.000000 -1.000000 1.000000
v -1.000000 1.000000 1.000000
v -1.000000 -1.000000 -1.000000
v -1.000000 1.000000 -1.000000
v 1.000000 -1.000000 1.000000
v 1.000000 1.000000 1.000000
v 1.000000 -1.000000 -1.000000
v 1.000000 1.000000 -1.000000
v -1.000000 -1.000000 0.000000
v -1.000000 0.000000 1.000000
v -1.000000 1.000000 0.000000
v -1.000000 0.000000 -1.000000
v 0.000000 -1.000000 -1.000000
v 0.000000 1.000000 -1.000000
v 1.000000 0.000000 -1.000000
v 1.000000 -1.000000 0.000000
v 1.000000 1.000000 0.000000
v 1.000000 0.000000 1.000000
v 0.000000 -1.000000 1.000000
v 0.000000 1.000000 1.000000
v 0.000000 1.640171 0.000000
v 0.000000 -1.640171 0.000000
v 0.000000 0.000000 1.640171
v 1.640171 0.000000 0.000000
v 0.000000 0.000000 -1.640171
v -1.640171 0.000000 0.000000
v -1.000000 -1.000000 0.500000
v -1.000000 0.500000 1.000000
v -1.000000 1.000000 -0.500000
v -1.000000 -0.500000 -1.000000
v -0.500000 -1.000000 -1.000000
v 0.500000 1.000000 -1.000000
v 1.000000 -0.500000 -1.000000
v 1.000000 -1.000000 -0.500000
v 1.000000 1.000000 0.500000
v 1.000000 -0.500000 1.000000
v 0.500000 -1.000000 1.000000
v -0.500000 1.000000 1.000000
v -1.000000 -1.000000 -0.500000
v -1.000000 -0.500000 1.000000
v -1.000000 1.000000 0.500000
v -1.000000 0.500000 -1.000000
v 0.500000 -1.000000 -1.000000
v -0.500000 1.000000 -1.000000
v 1.000000 0.500000 -1.000000
v 1.000000 -1.000000 0.500000
v 1.000000 1.000000 -0.500000
v 1.000000 0.500000 1.000000
v -0.500000 -1.000000 1.000000
v 0.500000 1.000000 1.000000
v 0.000000 1.411287 0.705644
v 0.000000 1.411287 -0.705644
v 0.705644 1.411287 0.000000
v -0.705644 1.411287 0.000000
v 0.000000 -1.411287 0.705644
v 0.000000 -1.411287 -0.705644
v -0.705644 -1.411287 0.000000
v 0.705644 -1.411287 0.000000
v -0.705644 0.000000 1.411287
v 0.705644 0.000000 1.411287
v 0.000000 -0.705644 1.411287
v 0.000000 0.705644 1.411287
v 1.411287 0.000000 0.705644
v 1.411287 0.000000 -0.705644
v 1.411287 -0.705644 0.000000
v 1.411287 0.705644 0.000000
v 0.705644 0.000000 -1.411287
v -0.705644 0.000000 -1.411287
v 0.000000 -0.705644 -1.411287
v 0.000000 0.705644 -1.411287
v -1.411287 0.000000 -0.705644
v -1.411287 0.000000 0.705644
v -1.411287 -0.705644 0.000000
v -1.411287 0.705644 0.000000
v -1.411287 0.705644 0.705644
v -1.411287 -0.705644 0.705644
v -1.411287 -0.705644 -0.705644
v -0.705644 0.705644 -1.411287
v -0.705644 -0.705644 -1.411287
v 0.705644 -0.705644 -1.411287
v 1.411287 0.705644 -0.705644
v 1.411287 -0.705644 -0.705644
v 1.411287 -0.705644 0.705644
v 0.705644 0.705644 1.411287
v 0.705644 -0.705644 1.411287
v -0.705644 -0.705644 1.411287
v 0.705644 -1.411287 -0.705644
v -0.705644 -1.411287 -0.705644
v -0.705644 -1.411287 0.705644
v -0.705644 1.411287 -0.705644
v 0.705644 1.411287 -0.705644
v 0.705644 1.411287 0.705644
v -0.705644 1.411287 0.705644
v 0.705644 -1.411287 0.705644
v -0.705644 0.705644 1.411287
v 1.411287 0.705644 0.705644
v 0.705644 0.705644 -1.411287
v -1.411287 0.705644 -0.705644
vn -0.5820 -0.0000 -0.8132
vn 0.8132 -0.0000 -0.5820
vn 0.5820 -0.0000 0.8132
vn -0.8132 -0.0000 0.5820
vn -0.0000 -0.5820 0.8132
vn -0.0000 0.5820 0.8132
vn -0.0000 1.0000 -0.0000
vn -0.8132 0.5820 -0.0000
vn -0.0000 -1.0000 -0.0000
vn 0.8132 -0.5820 -0.0000
vn -0.0000 -0.0000 1.0000
vn -0.0000 0.8132 0.5820
vn 1.0000 -0.0000 -0.0000
vn 0.5820 0.8132 -0.0000
vn -0.0000 -0.0000 -1.0000
vn -0.0000 0.8132 -0.5820
vn -1.0000 -0.0000 -0.0000
vn -0.5820 0.8132 -0.0000
vn -0.9089 0.2948 0.2948
vn -0.5820 -0.0000 0.8132
vn -0.5820 -0.8132 -0.0000
vn -0.2948 0.2948 -0.9089
vn -0.8132 -0.0000 -0.5820
vn -0.0000 -0.8132 -0.5820
vn 0.9089 0.2948 -0.2948
vn 0.5820 -0.0000 -0.8132
vn 0.5820 -0.8132 -0.0000
vn 0.2948 0.2948 0.9089
vn 0.8132 -0.0000 0.5820
vn -0.0000 -0.8132 0.5820
vn 0.2948 -0.9089 -0.2948
vn -0.0000 -0.5820 -0.8132
vn -0.8132 -0.5820 -0.0000
vn -0.2948 0.9089 -0.2948
vn -0.0000 0.5820 -0.8132
vn 0.8132 0.5820 -0.0000
vn -0.2948 0.9089 0.2948
vn 0.2948 -0.9089 0.2948
vn -0.2948 0.2948 0.9089
vn 0.9089 0.2948 0.2948
vn 0.2948 0.2948 -0.9089
vn -0.9089 0.2948 -0.2948
vn 0.2948 0.9089 -0.2948
vn -0.2948 -0.9089 -0.2948
vn 0.2948 -0.2948 0.9089
vn 0.9089 -0.2948 -0.2948
vn -0.2948 -0.2948 -0.9089
vn -0.9089 -0.2948 0.2948
vn -0.9089 -0.2948 -0.2948
vn 0.2948 -0.2948 -0.9089
vn 0.9089 -0.2948 0.2948
vn -0.2948 -0.2948 0.9089
vn -0.2948 -0.9089 0.2948
vn 0.2948 0.9089 0.2948
vt 0.562500 0.187500
vt 0.625000 0.250000
vt 0.562500 0.250000
vt 0.562500 0.437500
vt 0.625000 0.500000
vt 0.562500 0.500000
vt 0.562500 0.687500
vt 0.625000 0.750000
vt 0.562500 0.750000
vt 0.562500 0.937500
vt 0.625000 1.000000
vt 0.562500 1.000000
vt 0.312500 0.687500
vt 0.375000 0.750000
vt 0.312500 0.750000
vt 0.812500 0.687500
vt 0.875000 0.750000
vt 0.812500 0.750000
vt 0.750000 0.687500
vt 0.687500 0.750000
vt 0.687500 0.687500
vt 0.750000 0.562500
vt 0.687500 0.625000
vt 0.687500 0.562500
vt 0.875000 0.562500
vt 0.812500 0.625000
vt 0.812500 0.562500
vt 0.250000 0.687500
vt 0.187500 0.750000
vt 0.187500 0.687500
vt 0.250000 0.562500
vt 0.187500 0.625000
vt 0.187500 0.562500
vt 0.375000 0.562500
vt 0.312500 0.625000
vt 0.312500 0.562500
vt 0.500000 0.937500
vt 0.437500 1.000000
vt 0.437500 0.937500
vt 0.500000 0.812500
vt 0.437500 0.875000
vt 0.437500 0.812500
vt 0.625000 0.812500
vt 0.562500 0.875000
vt 0.562500 0.812500
vt 0.500000 0.687500
vt 0.437500 0.750000
vt 0.437500 0.687500
vt 0.500000 0.562500
vt 0.437500 0.625000
vt 0.437500 0.562500
vt 0.625000 0.562500
vt 0.562500 0.625000
vt 0.562500 0.562500
vt 0.500000 0.437500
vt 0.437500 0.500000
vt 0.437500 0.437500
vt 0.500000 0.312500
vt 0.437500 0.375000
vt 0.437500 0.312500
vt 0.625000 0.312500
vt 0.562500 0.375000
vt 0.562500 0.312500
vt 0.500000 0.187500
vt 0.437500 0.250000
vt 0.437500 0.187500
vt 0.500000 0.062500
vt 0.437500 0.125000
vt 0.437500 0.062500
vt 0.625000 0.062500
vt 0.562500 0.125000
vt 0.562500 0.062500
vt 0.500000 0.125000
vt 0.562500 0.000000
vt 0.500000 0.000000
vt 0.625000 0.000000
vt 0.375000 0.062500
vt 0.375000 0.125000
vt 0.375000 0.000000
vt 0.437500 0.000000
vt 0.375000 0.250000
vt 0.375000 0.187500
vt 0.500000 0.375000
vt 0.500000 0.250000
vt 0.375000 0.312500
vt 0.375000 0.375000
vt 0.375000 0.500000
vt 0.375000 0.437500
vt 0.500000 0.625000
vt 0.500000 0.500000
vt 0.375000 0.625000
vt 0.375000 0.687500
vt 0.500000 0.875000
vt 0.500000 0.750000
vt 0.375000 0.812500
vt 0.375000 0.875000
vt 0.375000 1.000000
vt 0.375000 0.937500
vt 0.250000 0.625000
vt 0.312500 0.500000
vt 0.250000 0.500000
vt 0.125000 0.562500
vt 0.125000 0.625000
vt 0.125000 0.500000
vt 0.187500 0.500000
vt 0.125000 0.750000
vt 0.125000 0.687500
vt 0.750000 0.625000
vt 0.812500 0.500000
vt 0.750000 0.500000
vt 0.875000 0.500000
vt 0.625000 0.625000
vt 0.687500 0.500000
vt 0.625000 0.687500
vt 0.750000 0.750000
vt 0.875000 0.687500
vt 0.250000 0.750000
vt 0.500000 1.000000
vt 0.625000 0.937500
vt 0.625000 0.437500
vt 0.625000 0.187500
vt 0.875000 0.625000
vt 0.625000 0.875000
vt 0.625000 0.375000
vt 0.625000 0.125000
s 0
usemtl マテリアル
f 98/1/1 4/2/1 42/3/1
f 97/4/2 8/5/2 45/6/2
f 96/7/3 6/8/3 48/9/3
f 95/10/4 2/11/4 28/12/4
f 94/13/5 5/14/5 37/15/5
f 93/16/6 2/17/6 38/18/6
f 51/19/6 50/20/6 92/21/6
f 52/22/7 53/23/7 91/24/7
f 29/25/8 54/26/8 90/27/8
f 55/28/5 49/29/5 89/30/5
f 56/31/9 57/32/9 88/33/9
f 34/34/10 58/35/10 87/36/10
f 59/37/4 40/38/4 86/39/4
f 60/40/11 61/41/11 85/42/11
f 50/43/12 62/44/12 84/45/12
f 63/46/3 36/47/3 83/48/3
f 64/49/13 65/50/13 82/51/13
f 47/52/14 66/53/14 81/54/14
f 67/55/2 33/56/2 80/57/2
f 68/58/15 69/59/15 79/60/15
f 44/61/16 70/62/16 78/63/16
f 71/64/1 30/65/1 77/66/1
f 72/67/17 73/68/17 76/69/17
f 41/70/18 74/71/18 75/72/18
f 72/67/19 74/71/19 26/73/19
f 28/74/20 72/67/20 10/75/20
f 2/76/20 75/72/20 28/74/20
f 27/77/21 73/68/21 9/78/21
f 1/79/21 76/69/21 27/77/21
f 40/80/20 72/67/20 76/69/20
f 77/66/21 3/81/21 39/82/21
f 73/68/21 39/82/21 9/78/21
f 73/68/17 71/64/17 77/66/17
f 68/58/22 70/62/22 25/83/22
f 42/3/23 68/58/23 12/84/23
f 4/2/23 78/63/23 42/3/23
f 31/85/24 69/59/24 13/86/24
f 3/81/24 79/60/24 31/85/24
f 30/65/23 68/58/23 79/60/23
f 80/57/24 7/87/24 43/88/24
f 69/59/24 43/88/24 13/86/24
f 69/59/15 67/55/15 80/57/15
f 64/49/25 66/53/25 24/89/25
f 45/6/26 64/49/26 15/90/26
f 8/5/26 81/54/26 45/6/26
f 34/34/27 65/50/27 16/91/27
f 7/87/27 82/51/27 34/34/27
f 33/56/26 64/49/26 82/51/26
f 83/48/27 5/14/27 46/92/27
f 65/50/27 46/92/27 16/91/27
f 65/50/13 63/46/13 83/48/13
f 60/40/28 62/44/28 23/93/28
f 48/9/29 60/40/29 18/94/29
f 6/8/29 84/45/29 48/9/29
f 37/95/30 61/41/30 19/96/30
f 5/14/30 85/42/30 37/95/30
f 36/47/29 60/40/29 85/42/29
f 86/39/30 1/97/30 49/98/30
f 61/41/30 49/98/30 19/96/30
f 61/41/11 59/37/11 86/39/11
f 56/31/31 58/35/31 22/99/31
f 43/100/32 56/31/32 13/101/32
f 7/87/32 87/36/32 43/100/32
f 39/102/33 57/32/33 9/103/33
f 3/104/33 88/33/33 39/102/33
f 31/105/32 56/31/32 88/33/32
f 89/30/33 1/106/33 27/107/33
f 57/32/33 27/107/33 9/103/33
f 57/32/9 55/28/9 89/30/9
f 52/22/34 54/26/34 21/108/34
f 44/109/35 52/22/35 14/110/35
f 4/111/35 90/27/35 44/109/35
f 47/52/36 53/23/36 17/112/36
f 8/5/36 91/24/36 47/52/36
f 32/113/35 52/22/35 91/24/35
f 92/21/36 6/8/36 35/114/36
f 53/23/36 35/114/36 17/112/36
f 53/23/7 51/19/7 92/21/7
f 51/19/6 38/18/6 20/115/6
f 54/26/37 51/19/37 21/108/37
f 54/26/8 41/116/8 93/16/8
f 55/28/5 37/15/5 19/117/5
f 58/35/38 55/28/38 22/99/38
f 58/35/10 46/92/10 94/13/10
f 59/37/4 28/12/4 10/118/4
f 62/44/39 59/37/39 23/93/39
f 62/44/12 38/119/12 95/10/12
f 63/46/3 48/9/3 18/94/3
f 66/53/40 63/46/40 24/89/40
f 66/53/14 35/114/14 96/7/14
f 67/55/2 45/6/2 15/90/2
f 70/62/41 67/55/41 25/83/41
f 70/62/16 32/120/16 97/4/16
f 71/64/1 42/3/1 12/84/1
f 74/71/42 71/64/42 26/73/42
f 74/71/18 29/121/18 98/1/18
f 98/1/18 29/121/18 4/2/18
f 97/4/16 32/120/16 8/5/16
f 96/7/14 35/114/14 6/8/14
f 95/10/12 38/119/12 2/11/12
f 94/13/10 46/92/10 5/14/10
f 93/16/8 41/116/8 2/17/8
f 51/19/6 20/115/6 50/20/6
f 52/22/43 21/108/43 53/23/43
f 29/25/8 11/122/8 54/26/8
f 55/28/5 19/117/5 49/29/5
f 56/31/44 22/99/44 57/32/44
f 34/34/10 16/91/10 58/35/10
f 59/37/4 10/118/4 40/38/4
f 60/40/45 23/93/45 61/41/45
f 50/43/12 20/123/12 62/44/12
f 63/46/3 18/94/3 36/47/3
f 64/49/46 24/89/46 65/50/46
f 47/52/14 17/112/14 66/53/14
f 67/55/2 15/90/2 33/56/2
f 68/58/47 25/83/47 69/59/47
f 44/61/16 14/124/16 70/62/16
f 71/64/1 12/84/1 30/65/1
f 72/67/48 26/73/48 73/68/48
f 41/70/18 11/125/18 74/71/18
f 72/67/17 75/72/17 74/71/17
f 28/74/20 75/72/20 72/67/20
f 2/76/18 41/70/18 75/72/18
f 27/77/21 76/69/21 73/68/21
f 1/79/20 40/80/20 76/69/20
f 40/80/20 10/75/20 72/67/20
f 77/66/1 30/65/1 3/81/1
f 73/68/21 77/66/21 39/82/21
f 73/68/49 26/73/49 71/64/49
f 68/58/15 78/63/15 70/62/15
f 42/3/23 78/63/23 68/58/23
f 4/2/16 44/61/16 78/63/16
f 31/85/24 79/60/24 69/59/24
f 3/81/23 30/65/23 79/60/23
f 30/65/23 12/84/23 68/58/23
f 80/57/2 33/56/2 7/87/2
f 69/59/24 80/57/24 43/88/24
f 69/59/50 25/83/50 67/55/50
f 64/49/13 81/54/13 66/53/13
f 45/6/26 81/54/26 64/49/26
f 8/5/14 47/52/14 81/54/14
f 34/34/27 82/51/27 65/50/27
f 7/87/26 33/56/26 82/51/26
f 33/56/26 15/90/26 64/49/26
f 83/48/3 36/47/3 5/14/3
f 65/50/27 83/48/27 46/92/27
f 65/50/51 24/89/51 63/46/51
f 60/40/11 84/45/11 62/44/11
f 48/9/29 84/45/29 60/40/29
f 6/8/12 50/43/12 84/45/12
f 37/95/30 85/42/30 61/41/30
f 5/14/29 36/47/29 85/42/29
f 36/47/29 18/94/29 60/40/29
f 86/39/4 40/38/4 1/97/4
f 61/41/30 86/39/30 49/98/30
f 61/41/52 23/93/52 59/37/52
f 56/31/9 87/36/9 58/35/9
f 43/100/32 87/36/32 56/31/32
f 7/87/10 34/34/10 87/36/10
f 39/102/33 88/33/33 57/32/33
f 3/104/32 31/105/32 88/33/32
f 31/105/32 13/101/32 56/31/32
f 89/30/5 49/29/5 1/106/5
f 57/32/33 89/30/33 27/107/33
f 57/32/53 22/99/53 55/28/53
f 52/22/7 90/27/7 54/26/7
f 44/109/35 90/27/35 52/22/35
f 4/111/8 29/25/8 90/27/8
f 47/52/36 91/24/36 53/23/36
f 8/5/35 32/113/35 91/24/35
f 32/113/35 14/110/35 52/22/35
f 92/21/6 50/20/6 6/8/6
f 53/23/36 92/21/36 35/114/36
f 53/23/54 21/108/54 51/19/54
f 51/19/6 93/16/6 38/18/6
f 54/26/7 93/16/7 51/19/7
f 54/26/8 11/122/8 41/116/8
f 55/28/5 94/13/5 37/15/5
f 58/35/9 94/13/9 55/28/9
f 58/35/10 16/91/10 46/92/10
f 59/37/4 95/10/4 28/12/4
f 62/44/11 95/10/11 59/37/11
f 62/44/12 20/123/12 38/119/12
f 63/46/3 96/7/3 48/9/3
f 66/53/13 96/7/13 63/46/13
f 66/53/14 17/112/14 35/114/14
f 67/55/2 97/4/2 45/6/2
f 70/62/15 97/4/15 67/55/15
f 70/62/16 14/124/16 32/120/16
f 71/64/1 98/1/1 42/3/1
f 74/71/17 98/1/17 71/64/17
f 74/71/18 11/125/18 29/121/18
