# Blender 3.6.0
# www.blender.org
mtllib rail.mtl
o 立方体.003
v -1.000000 -0.200000 -0.800000
v -1.000000 0.200000 -0.800000
v -1.000000 -0.200000 -1.200000
v -1.000000 0.200000 -1.200000
v 1.000000 -0.200000 -0.800000
v 1.000000 0.200000 -0.800000
v 1.000000 -0.200000 -1.200000
v 1.000000 0.200000 -1.200000
v 0.800000 -0.400000 2.000000
v 0.800000 0.400000 2.000000
v 0.800000 -0.400000 -2.000000
v 0.800000 0.400000 -2.000000
v 1.200000 -0.400000 2.000000
v 1.200000 0.400000 2.000000
v 1.200000 -0.400000 -2.000000
v 1.200000 0.400000 -2.000000
v -1.200000 -0.400000 2.000000
v -1.200000 0.400000 2.000000
v -1.200000 -0.400000 -2.000000
v -1.200000 0.400000 -2.000000
v -0.800000 -0.400000 2.000000
v -0.800000 0.400000 2.000000
v -0.800000 -0.400000 -2.000000
v -0.800000 0.400000 -2.000000
v -1.000000 -0.200000 1.200000
v -1.000000 0.200000 1.200000
v -1.000000 -0.200000 0.800000
v -1.000000 0.200000 0.800000
v 1.000000 -0.200000 1.200000
v 1.000000 0.200000 1.200000
v 1.000000 -0.200000 0.800000
v 1.000000 0.200000 0.800000
vn -0.0000 -0.0000 -1.0000
vn -0.0000 -0.0000 1.0000
vn -0.0000 -1.0000 -0.0000
vn -0.0000 1.0000 -0.0000
vn -1.0000 -0.0000 -0.0000
vn 1.0000 -0.0000 -0.0000
vt 0.710903 0.325314
vt 0.893856 0.508266
vt 0.710903 0.508266
vt 0.893856 0.874171
vt 0.710903 0.691219
vt 0.893856 0.691219
vt 0.893856 0.142361
vt 0.893856 0.325314
vt 0.225715 0.009890
vt 0.127693 0.500000
vt 0.127693 0.009890
vt 0.225715 0.500000
vt 0.127693 0.509802
vt 0.225715 0.509802
vt 0.127693 0.999912
vt 0.225715 0.000088
vt 0.127693 0.000088
vt 0.117891 0.500000
vt 0.235517 0.009890
vt 0.235517 0.500000
vt 0.009891 0.999912
vt 0.107912 0.509802
vt 0.107913 0.999912
vt 0.009890 0.509802
vt 0.107912 0.500000
vt 0.009890 0.500000
vt 0.107912 0.009890
vt 0.009890 0.009890
vt 0.107912 0.000088
vt 0.117715 0.009890
vt 0.117715 0.500000
vt 0.000088 0.500000
vt 0.527292 0.325314
vt 0.710245 0.508266
vt 0.527292 0.508266
vt 0.710245 0.874172
vt 0.527292 0.691219
vt 0.710245 0.691219
vt 0.710245 0.142361
vt 0.710245 0.325314
vt 0.710903 0.874171
vt 0.710903 0.142361
vt 0.225715 0.999912
vt 0.117891 0.009890
vt 0.009890 0.000088
vt 0.000088 0.009890
vt 0.527292 0.874172
vt 0.527292 0.142361
s 0
usemtl マテリアル.001
f 4/1/1 7/2/1 3/3/1
f 6/4/2 1/5/2 5/6/2
f 7/2/3 1/5/3 3/3/3
f 4/1/4 6/7/4 8/8/4
f 10/9/5 11/10/5 9/11/5
f 12/12/1 15/13/1 11/10/1
f 16/14/6 13/15/6 15/13/6
f 14/16/2 9/11/2 13/17/2
f 15/18/3 9/11/3 11/10/3
f 12/12/4 14/19/4 16/20/4
f 18/21/5 19/22/5 17/23/5
f 20/24/1 23/25/1 19/22/1
f 24/26/6 21/27/6 23/25/6
f 22/28/2 17/29/2 21/27/2
f 23/25/3 17/30/3 19/31/3
f 20/32/4 22/28/4 24/26/4
f 28/33/1 31/34/1 27/35/1
f 30/36/2 25/37/2 29/38/2
f 31/34/3 25/37/3 27/35/3
f 28/33/4 30/39/4 32/40/4
f 4/1/1 8/8/1 7/2/1
f 6/4/2 2/41/2 1/5/2
f 7/2/3 5/6/3 1/5/3
f 4/1/4 2/42/4 6/7/4
f 10/9/5 12/12/5 11/10/5
f 12/12/1 16/14/1 15/13/1
f 16/14/6 14/43/6 13/15/6
f 14/16/2 10/9/2 9/11/2
f 15/18/3 13/44/3 9/11/3
f 12/12/4 10/9/4 14/19/4
f 18/21/5 20/24/5 19/22/5
f 20/24/1 24/26/1 23/25/1
f 24/26/6 22/28/6 21/27/6
f 22/28/2 18/45/2 17/29/2
f 23/25/3 21/27/3 17/30/3
f 20/32/4 18/46/4 22/28/4
f 28/33/1 32/40/1 31/34/1
f 30/36/2 26/47/2 25/37/2
f 31/34/3 29/38/3 25/37/3
f 28/33/4 26/48/4 30/39/4
