# Blender 3.6.0
# www.blender.org
mtllib title.mtl
o テキスト.001
v -8.970000 2.940000 -0.999997
v -8.970000 0.880000 -0.999997
v -11.760000 0.880000 -0.999996
v -11.760000 0.000000 -0.999996
v -8.970000 0.000000 -0.999997
v -8.970000 -2.120000 -0.999997
v -11.950001 -2.120000 -0.999996
v -11.950001 -3.000000 -0.999996
v -7.990001 -3.000000 -0.999998
v -7.990001 3.820000 -0.999997
v -11.860000 3.820000 -0.999996
v -11.860000 2.940000 -0.999996
v -7.140000 -2.120000 -0.999998
v -7.140000 -3.000000 -0.999998
v -3.080000 -3.000000 -0.999999
v -3.080000 3.820000 -0.999999
v -4.060000 3.820000 -0.999998
v -4.060000 -2.120000 -0.999999
v 0.190000 2.940000 -1.000000
v 0.190000 -3.000000 -1.000000
v 1.170000 -3.000000 -1.000001
v 1.170000 2.940000 -1.000000
v 3.529999 2.940000 -1.000001
v 3.529999 3.820000 -1.000001
v -2.170000 3.820000 -0.999999
v -2.170000 2.940000 -0.999999
v 5.440000 -3.000000 -1.000002
v 5.440000 3.820000 -1.000001
v 4.460000 3.820000 -1.000001
v 4.460000 -3.000000 -1.000002
v 8.730000 2.940000 -1.000003
v 8.730000 -3.000000 -1.000003
v 9.710000 -3.000000 -1.000003
v 9.710000 2.940000 -1.000003
v 12.070000 2.940000 -1.000004
v 12.070000 3.820000 -1.000004
v 6.370000 3.820000 -1.000002
v 6.370000 2.940000 -1.000002
v -8.970000 2.940000 1.000003
v -8.970000 0.880000 1.000003
v -11.760000 0.880000 1.000004
v -11.760000 -0.000000 1.000004
v -8.970000 -0.000000 1.000003
v -8.970000 -2.120000 1.000003
v -11.950001 -2.120000 1.000004
v -11.950001 -3.000000 1.000004
v -7.990000 -3.000000 1.000002
v -7.990000 3.820000 1.000003
v -11.860000 3.820000 1.000004
v -11.860000 2.940000 1.000004
v -7.139999 -2.120000 1.000002
v -7.139999 -3.000000 1.000002
v -3.080000 -3.000000 1.000001
v -3.080000 3.820000 1.000001
v -4.059999 3.820000 1.000002
v -4.059999 -2.120000 1.000001
v 0.190000 2.940000 1.000000
v 0.190000 -3.000000 1.000000
v 1.170000 -3.000000 0.999999
v 1.170000 2.940000 1.000000
v 3.530000 2.940000 0.999999
v 3.530000 3.820000 0.999999
v -2.170000 3.820000 1.000001
v -2.170000 2.940000 1.000001
v 5.440001 -3.000000 0.999998
v 5.440001 3.820000 0.999999
v 4.460001 3.820000 0.999999
v 4.460001 -3.000000 0.999998
v 8.730000 2.940000 0.999997
v 8.730000 -3.000000 0.999997
v 9.710000 -3.000000 0.999997
v 9.710000 2.940000 0.999997
v 12.070000 2.940000 0.999996
v 12.070000 3.820000 0.999996
v 6.370001 3.820000 0.999998
v 6.370001 2.940000 0.999998
v 8.730000 2.940000 0.999997
v 8.730000 2.940000 -1.000003
v 8.730000 -3.000000 0.999997
v 8.730000 -3.000000 -1.000003
v 9.710000 -3.000000 0.999997
v 9.710000 -3.000000 -1.000003
v 9.710000 2.940000 0.999997
v 9.710000 2.940000 -1.000003
v 12.070000 2.940000 0.999996
v 12.070000 2.940000 -1.000004
v 12.070000 3.820000 0.999996
v 12.070000 3.820000 -1.000004
v 6.370001 3.820000 0.999998
v 6.370000 3.820000 -1.000002
v 6.370001 2.940000 0.999998
v 6.370000 2.940000 -1.000002
v 5.440001 -3.000000 0.999998
v 5.440000 -3.000000 -1.000002
v 5.440001 3.820000 0.999999
v 5.440000 3.820000 -1.000001
v 4.460001 3.820000 0.999999
v 4.460000 3.820000 -1.000001
v 4.460001 -3.000000 0.999998
v 4.460000 -3.000000 -1.000002
v 0.190000 2.940000 1.000000
v 0.190000 2.940000 -1.000000
v 0.190000 -3.000000 1.000000
v 0.190000 -3.000000 -1.000000
v 1.170000 -3.000000 0.999999
v 1.170000 -3.000000 -1.000001
v 1.170000 2.940000 1.000000
v 1.170000 2.940000 -1.000000
v 3.530000 2.940000 0.999999
v 3.529999 2.940000 -1.000001
v 3.530000 3.820000 0.999999
v 3.529999 3.820000 -1.000001
v -2.170000 3.820000 1.000001
v -2.170000 3.820000 -0.999999
v -2.170000 2.940000 1.000001
v -2.170000 2.940000 -0.999999
v -7.139999 -2.120000 1.000002
v -7.140000 -2.120000 -0.999998
v -7.139999 -3.000000 1.000002
v -7.140000 -3.000000 -0.999998
v -3.080000 -3.000000 1.000001
v -3.080000 -3.000000 -0.999999
v -3.080000 3.820000 1.000001
v -3.080000 3.820000 -0.999999
v -4.059999 3.820000 1.000002
v -4.060000 3.820000 -0.999998
v -4.059999 -2.120000 1.000001
v -4.060000 -2.120000 -0.999999
v -8.970000 2.940000 1.000003
v -8.970000 2.940000 -0.999997
v -8.970000 0.880000 1.000003
v -8.970000 0.880000 -0.999997
v -11.760000 0.880000 1.000004
v -11.760000 0.880000 -0.999996
v -11.760000 -0.000000 1.000004
v -11.760000 0.000000 -0.999996
v -8.970000 -0.000000 1.000003
v -8.970000 0.000000 -0.999997
v -8.970000 -2.120000 1.000003
v -8.970000 -2.120000 -0.999997
v -11.950001 -2.120000 1.000004
v -11.950001 -2.120000 -0.999996
v -11.950001 -3.000000 1.000004
v -11.950001 -3.000000 -0.999996
v -7.990000 -3.000000 1.000002
v -7.990001 -3.000000 -0.999998
v -7.990000 3.820000 1.000003
v -7.990001 3.820000 -0.999997
v -11.860000 3.820000 1.000004
v -11.860000 3.820000 -0.999996
v -11.860000 2.940000 1.000004
v -11.860000 2.940000 -0.999996
vn -0.0000 -0.0000 -1.0000
vn -0.0000 -1.0000 -0.0000
vn -0.0000 1.0000 -0.0000
vn -0.0000 -0.0000 1.0000
vn -0.7071 -0.7071 -0.0000
vn 0.7071 -0.7071 -0.0000
vn 0.7071 0.7071 -0.0000
vn -0.7071 0.7071 -0.0000
vt 0.727273 0.000000
vt 0.000000 0.000000
vt 0.818182 0.000000
vt 0.909091 0.000000
vt 1.000000 0.000000
vt 0.090909 0.000000
vt 0.363636 0.000000
vt 0.181818 0.000000
vt 0.272727 0.000000
vt 0.454545 0.000000
vt 0.545455 0.000000
vt 0.636364 0.000000
vt 0.400000 0.000000
vt 0.800000 0.000000
vt 0.600000 0.000000
vt 0.200000 0.000000
vt 0.571429 0.000000
vt 0.857143 0.000000
vt 0.714286 0.000000
vt 0.428571 0.000000
vt 0.285714 0.000000
vt 0.142857 0.000000
vt 0.666667 0.000000
vt 0.333333 0.000000
vt 0.125000 1.000000
vt 0.000000 1.000000
vt 0.250000 1.000000
vt 0.125000 0.000000
vt 0.375000 1.000000
vt 0.250000 0.000000
vt 0.500000 1.000000
vt 0.375000 0.000000
vt 0.625000 1.000000
vt 0.500000 0.000000
vt 0.750000 1.000000
vt 0.625000 0.000000
vt 0.875000 1.000000
vt 0.750000 0.000000
vt 1.000000 1.000000
vt 0.875000 0.000000
vt 0.166667 1.000000
vt 0.333333 1.000000
vt 0.166667 0.000000
vt 0.666667 1.000000
vt 0.833333 1.000000
vt 0.833333 0.000000
vt 0.083333 1.000000
vt 0.083333 0.000000
vt 0.416667 1.000000
vt 0.416667 0.000000
vt 0.583333 1.000000
vt 0.583333 0.000000
vt 0.916667 1.000000
vt 0.916667 0.000000
s 0
usemtl マテリアル.001
f 9/1/1 1/2/1 10/3/1
f 1/2/1 11/4/1 10/3/1
f 1/2/1 12/5/1 11/4/1
f 9/1/1 2/6/1 1/2/1
f 9/1/1 5/7/1 2/6/1
f 5/7/1 3/8/1 2/6/1
f 5/7/1 4/9/1 3/8/1
f 9/1/1 6/10/1 5/7/1
f 9/1/1 7/11/1 6/10/1
f 9/1/1 8/12/1 7/11/1
f 15/13/1 17/14/1 16/15/1
f 15/13/1 18/5/1 17/14/1
f 15/13/1 13/2/1 18/5/1
f 15/13/1 14/16/1 13/2/1
f 23/17/1 25/18/1 24/19/1
f 23/17/1 26/5/1 25/18/1
f 22/20/2 26/5/2 23/17/2
f 21/21/1 19/2/1 22/20/1
f 19/2/3 26/5/3 22/20/3
f 21/21/1 20/22/1 19/2/1
f 27/2/1 29/23/1 28/24/1
f 27/2/1 30/5/1 29/23/1
f 35/17/1 37/18/1 36/19/1
f 35/17/1 38/5/1 37/18/1
f 34/20/3 38/5/3 35/17/3
f 33/21/1 31/2/1 34/20/1
f 31/2/3 38/5/3 34/20/3
f 33/21/1 32/22/1 31/2/1
f 47/1/4 48/3/4 39/2/4
f 39/2/4 48/3/4 49/4/4
f 39/2/4 49/4/4 50/5/4
f 47/1/4 39/2/4 40/6/4
f 47/1/4 40/6/4 43/7/4
f 43/7/4 40/6/4 41/8/4
f 43/7/4 41/8/4 42/9/4
f 47/1/4 43/7/4 44/10/4
f 47/1/4 44/10/4 45/11/4
f 47/1/4 45/11/4 46/12/4
f 53/13/4 54/15/4 55/14/4
f 53/13/4 55/14/4 56/5/4
f 53/13/4 56/5/4 51/2/4
f 53/13/4 51/2/4 52/16/4
f 61/17/4 62/19/4 63/18/4
f 61/17/4 63/18/4 64/5/4
f 60/20/3 61/17/3 64/5/3
f 59/21/4 60/20/4 57/2/4
f 57/2/2 60/20/2 64/5/2
f 59/21/4 57/2/4 58/22/4
f 65/2/4 66/24/4 67/23/4
f 65/2/4 67/23/4 68/5/4
f 73/17/4 74/19/4 75/18/4
f 73/17/4 75/18/4 76/5/4
f 72/20/3 73/17/3 76/5/3
f 71/21/4 72/20/4 69/2/4
f 69/2/3 72/20/3 76/5/3
f 71/21/4 69/2/4 70/22/4
s 1
f 80/25/5 77/2/5 78/26/5
f 82/27/6 79/28/5 80/25/5
f 84/29/6 81/30/6 82/27/6
f 86/31/6 83/32/6 84/29/6
f 88/33/7 85/34/6 86/31/6
f 90/35/8 87/36/7 88/33/7
f 92/37/5 89/38/8 90/35/8
f 78/39/5 91/40/5 92/37/5
f 96/27/7 93/2/6 94/26/6
f 98/31/8 95/30/7 96/27/7
f 100/35/5 97/34/8 98/31/8
f 94/39/6 99/38/5 100/35/5
f 104/25/5 101/2/5 102/26/5
f 106/27/6 103/28/5 104/25/5
f 108/29/6 105/30/6 106/27/6
f 110/31/6 107/32/6 108/29/6
f 112/33/7 109/34/6 110/31/6
f 114/35/8 111/36/7 112/33/7
f 116/37/5 113/38/8 114/35/8
f 102/39/5 115/40/5 116/37/5
f 120/41/5 117/2/8 118/26/8
f 122/42/6 119/43/5 120/41/5
f 124/31/7 121/24/6 122/42/6
f 126/44/8 123/34/7 124/31/7
f 128/45/8 125/23/8 126/44/8
f 118/39/8 127/46/8 128/45/8
f 132/47/8 129/2/5 130/26/5
f 134/41/8 131/48/8 132/47/8
f 136/27/5 133/43/8 134/41/8
f 138/42/5 135/30/5 136/27/5
f 140/49/8 137/24/5 138/42/5
f 142/31/8 139/50/8 140/49/8
f 144/51/5 141/34/8 142/31/8
f 146/44/6 143/52/5 144/51/5
f 148/35/7 145/23/6 146/44/6
f 150/45/8 147/38/7 148/35/7
f 152/53/5 149/46/8 150/45/8
f 130/39/5 151/54/5 152/53/5
f 80/25/5 79/28/5 77/2/5
f 82/27/6 81/30/6 79/28/5
f 84/29/6 83/32/6 81/30/6
f 86/31/6 85/34/6 83/32/6
f 88/33/7 87/36/7 85/34/6
f 90/35/8 89/38/8 87/36/7
f 92/37/5 91/40/5 89/38/8
f 78/39/5 77/5/5 91/40/5
f 96/27/7 95/30/7 93/2/6
f 98/31/8 97/34/8 95/30/7
f 100/35/5 99/38/5 97/34/8
f 94/39/6 93/5/6 99/38/5
f 104/25/5 103/28/5 101/2/5
f 106/27/6 105/30/6 103/28/5
f 108/29/6 107/32/6 105/30/6
f 110/31/6 109/34/6 107/32/6
f 112/33/7 111/36/7 109/34/6
f 114/35/8 113/38/8 111/36/7
f 116/37/5 115/40/5 113/38/8
f 102/39/5 101/5/5 115/40/5
f 120/41/5 119/43/5 117/2/8
f 122/42/6 121/24/6 119/43/5
f 124/31/7 123/34/7 121/24/6
f 126/44/8 125/23/8 123/34/7
f 128/45/8 127/46/8 125/23/8
f 118/39/8 117/5/8 127/46/8
f 132/47/8 131/48/8 129/2/5
f 134/41/8 133/43/8 131/48/8
f 136/27/5 135/30/5 133/43/8
f 138/42/5 137/24/5 135/30/5
f 140/49/8 139/50/8 137/24/5
f 142/31/8 141/34/8 139/50/8
f 144/51/5 143/52/5 141/34/8
f 146/44/6 145/23/6 143/52/5
f 148/35/7 147/38/7 145/23/6
f 150/45/8 149/46/8 147/38/7
f 152/53/5 151/54/5 149/46/8
f 130/39/5 129/5/5 151/54/5
